# xmcd
#
# Track frame offsets:
#	150
#	11852
#	19098
#	26355
#	33612
#	41179
#	49328
#	57488
#	65638
#	73793
#	81964
#	90183
#	98418
#
# Disc length: 1333 seconds
#
# Revision: 1
# Processed by: cddbd v1.5.2PL0 Copyright (c) Steve Scherf et al.
# Submitted via: audiograbber 1.83.01
#
DISCID=ab05330d
DTITLE=Yael Naim - Yael Naim
DYEAR=2007
DGENRE=
TTITLE0=Paris
TTITLE1=Too long
TTITLE2=New soul
TTITLE3=Levater
TTITLE4=Shelcha
TTITLE5=Lonely
TTITLE6=Far far
TTITLE7=Yashanti
TTITLE8=7 baboker
TTITLE9=Lachlom
TTITLE10=Toxic
TTITLE11=Pachad
TTITLE12=Endless song of hapiness
EXTD=
EXTT0=
EXTT1=
EXTT2=
EXTT3=
EXTT4=
EXTT5=
EXTT6=
EXTT7=
EXTT8=
EXTT9=
EXTT10=
EXTT11=
EXTT12=
PLAYORDER=
